<mxfile host="app.diagrams.net" modified="2024-02-01T10:50:13.634Z" agent="Mozilla/5.0 (Windows NT 10.0; Win64; x64) AppleWebKit/537.36 (KHTML, like Gecko) Chrome/120.0.0.0 Safari/537.36 OPR/106.0.0.0" etag="LMsK2RtUUAhNYE488FA5" version="23.1.0" type="github">
  <diagram name="Page-1" id="YQneNfIJC-kv5Mov8Hgv">
    <mxGraphModel dx="1050" dy="542" grid="1" gridSize="10" guides="1" tooltips="1" connect="1" arrows="1" fold="1" page="1" pageScale="1" pageWidth="827" pageHeight="1169" math="0" shadow="0">
      <root>
        <mxCell id="0" />
        <mxCell id="1" parent="0" />
        <mxCell id="FX0ZpY_ByNPHgCRoeu5s-3" value="" style="edgeStyle=orthogonalEdgeStyle;rounded=0;orthogonalLoop=1;jettySize=auto;html=1;" edge="1" parent="1" source="FX0ZpY_ByNPHgCRoeu5s-1" target="FX0ZpY_ByNPHgCRoeu5s-2">
          <mxGeometry relative="1" as="geometry" />
        </mxCell>
        <mxCell id="FX0ZpY_ByNPHgCRoeu5s-1" value="Start" style="html=1;dashed=0;whiteSpace=wrap;shape=mxgraph.dfd.start" vertex="1" parent="1">
          <mxGeometry x="374" y="30" width="80" height="30" as="geometry" />
        </mxCell>
        <mxCell id="FX0ZpY_ByNPHgCRoeu5s-5" value="" style="edgeStyle=orthogonalEdgeStyle;rounded=0;orthogonalLoop=1;jettySize=auto;html=1;" edge="1" parent="1" source="FX0ZpY_ByNPHgCRoeu5s-2" target="FX0ZpY_ByNPHgCRoeu5s-4">
          <mxGeometry relative="1" as="geometry" />
        </mxCell>
        <mxCell id="FX0ZpY_ByNPHgCRoeu5s-2" value="Lancement du logiciel" style="whiteSpace=wrap;html=1;dashed=0;" vertex="1" parent="1">
          <mxGeometry x="354" y="90" width="120" height="60" as="geometry" />
        </mxCell>
        <mxCell id="FX0ZpY_ByNPHgCRoeu5s-7" value="" style="edgeStyle=orthogonalEdgeStyle;rounded=0;orthogonalLoop=1;jettySize=auto;html=1;" edge="1" parent="1" source="FX0ZpY_ByNPHgCRoeu5s-4" target="FX0ZpY_ByNPHgCRoeu5s-6">
          <mxGeometry relative="1" as="geometry" />
        </mxCell>
        <mxCell id="FX0ZpY_ByNPHgCRoeu5s-4" value="Disclaimer" style="shape=document;whiteSpace=wrap;html=1;boundedLbl=1;dashed=0;" vertex="1" parent="1">
          <mxGeometry x="354" y="180" width="120" height="35" as="geometry" />
        </mxCell>
        <mxCell id="FX0ZpY_ByNPHgCRoeu5s-6" value="" style="shape=manualInput;whiteSpace=wrap;html=1;" vertex="1" parent="1">
          <mxGeometry x="374" y="240" width="80" height="65" as="geometry" />
        </mxCell>
      </root>
    </mxGraphModel>
  </diagram>
</mxfile>
